<svg width="40" height="40" viewBox="0 0 40 40" fill="none" xmlns="http://www.w3.org/2000/svg">
<path d="M18.1823 27.7336C22.4198 27.2026 26.3483 25.2383 29.3156 22.1669C34.3156 17.1669 36.0656 10.6503 34.399 5.60027C29.399 3.93361 22.7323 5.75027 17.8323 10.6836C14.7609 13.651 12.7967 17.5794 12.2656 21.8169L18.1823 27.7336Z" stroke="#181818" stroke-width="2" stroke-linecap="round" stroke-linejoin="round"/>
<path d="M8.9 13.6504L5 17.5504L12.2667 21.8171C12.5644 19.2505 13.4237 16.7809 14.7833 14.5837L11.1667 13.1671C10.7828 13.0185 10.3639 12.9851 9.9613 13.071C9.55872 13.1568 9.1899 13.3582 8.9 13.6504V13.6504Z" stroke="#181818" stroke-width="2" stroke-linecap="round" stroke-linejoin="round"/>
<path d="M25.4169 25.2188C23.2198 26.5784 20.7502 27.4377 18.1836 27.7354L22.4503 35.0021L26.3503 31.1021C26.6425 30.8122 26.8439 30.4434 26.9297 30.0408C27.0156 29.6382 26.9822 29.2193 26.8336 28.8354L25.4169 25.2188Z" stroke="#181818" stroke-width="2" stroke-linecap="round" stroke-linejoin="round"/>
<path d="M11.9653 28.0342L7.41528 32.5842" stroke="#181818" stroke-width="2" stroke-linecap="round" stroke-linejoin="round"/>
<path d="M8.96711 25.0332L5.95044 28.0665" stroke="#181818" stroke-width="2" stroke-linecap="round" stroke-linejoin="round"/>
<path d="M14.9669 31.0322L11.9336 34.0489" stroke="#181818" stroke-width="1.5" stroke-linecap="round" stroke-linejoin="round"/>
<path d="M24.2348 18.9516C25.993 18.9516 27.4182 17.5264 27.4182 15.7683C27.4182 14.0102 25.993 12.585 24.2348 12.585C22.4767 12.585 21.0515 14.0102 21.0515 15.7683C21.0515 17.5264 22.4767 18.9516 24.2348 18.9516Z" stroke="#181818" stroke-width="1.5" stroke-linecap="round" stroke-linejoin="round"/>
</svg>
